<svg width="36" height="36" viewBox="0 0 36 36" fill="none" xmlns="http://www.w3.org/2000/svg">
<rect width="36" height="36" rx="18" fill="#4851D5"/>
<g clip-path="url(#clip0_69_1912)">
<path d="M18 6C16.7578 6 15.7507 7.00817 15.7507 8.25035V15.7502H8.25031C7.00813 15.7502 6.00049 16.7573 6.00049 18C6.00049 19.2427 7.00813 20.2503 8.25031 20.2503H15.7507V27.7507C15.7507 28.9918 16.7578 30 18 30C19.2432 30 20.2503 28.9924 20.2503 27.7507V20.2503H27.7501C28.9928 20.2503 30 19.2432 30 18C30 16.7573 28.9928 15.7502 27.7501 15.7502H20.2503V8.25035C20.2503 7.00817 19.2432 6 18 6Z" fill="white"/>
</g>
<defs>
<clipPath id="clip0_69_1912">
<rect width="24" height="24" fill="white" transform="translate(6 6)"/>
</clipPath>
</defs>
</svg>
