<svg width="33" height="33" viewBox="0 0 33 33" fill="none" xmlns="http://www.w3.org/2000/svg">
<rect x="0.5" y="0.5" width="31.0333" height="31.0333" rx="15.5167" stroke="white"/>
<path d="M25.3595 11.7787V15.9668C23.4764 15.7799 21.6808 15.0792 20.1689 13.9412V18.6131C20.1686 19.8809 19.8112 21.123 19.1377 22.197C18.4642 23.271 17.5018 24.1336 16.3607 24.6859C15.2196 25.2382 13.9461 25.4579 12.686 25.3198C11.4258 25.1816 10.2301 24.6913 9.23573 23.905C8.24137 23.1186 7.48861 22.068 7.0637 20.8736C6.63879 19.6792 6.5589 18.3892 6.8332 17.1514C7.1075 15.9137 7.72488 14.7783 8.61462 13.8752C9.50436 12.9722 10.6305 12.338 11.8639 12.0455V16.5367C11.51 16.8022 11.2298 17.1537 11.05 17.5579C10.8701 17.9621 10.7966 18.4056 10.8363 18.8462C10.876 19.2869 11.0277 19.71 11.277 20.0755C11.5262 20.441 11.8648 20.7368 12.2605 20.9346C12.6561 21.1325 13.0958 21.2259 13.5378 21.206C13.9797 21.1861 14.4092 21.0536 14.7855 20.821C15.1618 20.5884 15.4725 20.2635 15.6879 19.877C15.9033 19.4906 16.0164 19.0556 16.0164 18.6131V6.67383H20.255C20.4712 7.94916 21.0786 9.12567 21.9932 10.0403C22.9078 10.955 24.0842 11.5625 25.3595 11.7787Z" stroke="white" stroke-width="1.33472" stroke-linecap="round" stroke-linejoin="round"/>
</svg>
