<svg width="91" height="92" viewBox="0 0 91 92" fill="none" xmlns="http://www.w3.org/2000/svg">
<g clip-path="url(#clip0_69_1286)">
<path d="M18.7443 38.6825C19.8546 31.7037 28.5781 24.2491 35.3982 24.0905C35.8741 24.0905 36.3499 23.9318 36.6671 23.6146C36.9843 23.456 37.3015 23.2974 37.4602 22.8216C39.8393 18.3805 38.5704 14.8911 34.6052 12.0362C30.0055 8.7054 22.7095 12.0362 19.0615 15.0498C9.86222 22.663 0.504294 35.8273 0.980121 48.3576C-0.605968 56.7641 -0.28875 65.8046 2.09038 73.2592C3.67647 78.0175 8.27613 80.3966 13.0344 80.7138C17.7927 81.0313 27.6264 82.4585 31.9088 79.6038C36.1913 76.7486 36.5085 71.1973 36.9843 66.4393C37.4602 61.2052 38.8876 51.3712 34.4466 47.2473C30.0055 43.2821 17.3168 47.5646 18.7443 38.6825Z" fill="#4851D5" fill-opacity="0.5"/>
<path d="M71.0851 38.6825C72.1954 31.7037 80.9186 24.2491 87.7391 24.0905C88.2149 24.0905 88.6907 23.9318 89.0079 23.6146C89.3254 23.456 89.6424 23.2974 89.8012 22.8216C92.1804 18.3805 90.9115 14.8911 86.9463 12.0362C82.3466 8.7054 75.0506 12.0362 71.4024 15.0498C62.2031 22.663 52.8451 35.8275 53.321 48.3576C51.7349 56.7641 52.0521 65.8046 54.431 73.2592C56.017 78.0175 60.6167 80.3966 65.3752 80.7138C70.1335 81.0313 79.9672 82.4585 84.2497 79.6038C88.5319 76.7486 88.8493 71.1973 89.3252 66.4393C89.801 61.2052 91.2285 51.3712 86.7874 47.2473C82.3464 43.2821 69.4991 47.5646 71.0851 38.6825Z" fill="#4851D5" fill-opacity="0.5"/>
</g>
<defs>
<clipPath id="clip0_69_1286">
<rect width="91" height="91" fill="white" transform="translate(0 0.5)"/>
</clipPath>
</defs>
</svg>
