<svg width="124" height="123" viewBox="0 0 124 123" fill="none" xmlns="http://www.w3.org/2000/svg">
<rect x="0.5" width="123" height="123" rx="61.5" fill="white"/>
<g clip-path="url(#clip0_78_3493)">
<path d="M61.5334 41.1875H73.0959V43.5H61.5334V41.1875Z" fill="#4851D5"/>
<path d="M61.5334 45.8125H73.0959V48.125H61.5334V45.8125Z" fill="#4851D5"/>
<path d="M61.5334 50.4375H73.0959V52.75H61.5334V50.4375Z" fill="#4851D5"/>
<path d="M61.5334 55.0625H73.0959V57.375H61.5334V55.0625Z" fill="#4851D5"/>
<path d="M48.6667 43.2896C49.5136 43.5701 50.4283 43.5701 51.2752 43.2896C51.4803 44.0133 51.9151 44.6507 52.5141 45.1058C53.1131 45.5609 53.8437 45.8089 54.5959 45.8125H55.7522C56.0589 45.8125 56.353 45.9343 56.5698 46.1512C56.7866 46.368 56.9084 46.6621 56.9084 46.9688V50.4375H59.2209V46.9688C59.2209 46.0488 58.8555 45.1665 58.205 44.516C57.5545 43.8655 56.6722 43.5 55.7522 43.5H54.5959C54.2893 43.5 53.9952 43.3782 53.7784 43.1613C53.5615 42.9445 53.4397 42.6504 53.4397 42.3438V41.9021C54.1807 41.0674 54.5918 39.9911 54.5959 38.875V36.5625C54.5959 35.3359 54.1087 34.1595 53.2413 33.2921C52.374 32.4248 51.1976 31.9375 49.9709 31.9375C48.7443 31.9375 47.5679 32.4248 46.7006 33.2921C45.8332 34.1595 45.3459 35.3359 45.3459 36.5625V38.875C45.3501 39.9911 45.7612 41.0674 46.5022 41.9021V42.3438C46.5022 42.6504 46.3804 42.9445 46.1635 43.1613C45.9467 43.3782 45.6526 43.5 45.3459 43.5H44.1897C43.2697 43.5 42.3874 43.8655 41.7369 44.516C41.0864 45.1665 40.7209 46.0488 40.7209 46.9688V50.4375H43.0334V46.9688C43.0334 46.6621 43.1553 46.368 43.3721 46.1512C43.5889 45.9343 43.883 45.8125 44.1897 45.8125H45.3459C46.0982 45.8089 46.8288 45.5609 47.4278 45.1058C48.0268 44.6507 48.4616 44.0133 48.6667 43.2896ZM47.6584 36.5625C47.6584 35.9492 47.9021 35.361 48.3358 34.9273C48.7694 34.4936 49.3576 34.25 49.9709 34.25C50.5843 34.25 51.1725 34.4936 51.6061 34.9273C52.0398 35.361 52.2834 35.9492 52.2834 36.5625V38.875C52.2834 39.4883 52.0398 40.0765 51.6061 40.5102C51.1725 40.9439 50.5843 41.1875 49.9709 41.1875C49.3576 41.1875 48.7694 40.9439 48.3358 40.5102C47.9021 40.0765 47.6584 39.4883 47.6584 38.875V36.5625Z" fill="#4851D5"/>
<path d="M62.6897 38.875H71.9397C72.2464 38.875 72.5405 38.7532 72.7573 38.5363C72.9741 38.3195 73.0959 38.0254 73.0959 37.7188V33.0938C73.0959 32.7871 72.9741 32.493 72.7573 32.2762C72.5405 32.0593 72.2464 31.9375 71.9397 31.9375H62.6897C62.383 31.9375 62.0889 32.0593 61.8721 32.2762C61.6553 32.493 61.5334 32.7871 61.5334 33.0938V37.7188C61.5334 38.0254 61.6553 38.3195 61.8721 38.5363C62.0889 38.7532 62.383 38.875 62.6897 38.875ZM63.8459 34.25H70.7834V36.5625H63.8459V34.25Z" fill="#4851D5"/>
<path d="M96.2209 57.375C96.2191 55.5356 95.4876 53.7721 94.187 52.4715C92.8863 51.1708 91.1228 50.4393 89.2834 50.4375H82.3459V33.0938C82.3459 32.7871 82.2241 32.493 82.0073 32.2762C81.7905 32.0593 81.4964 31.9375 81.1897 31.9375H77.7209V28.4688C77.7209 28.1621 77.5991 27.868 77.3823 27.6512C77.1655 27.4343 76.8714 27.3125 76.5647 27.3125H37.2522C36.9455 27.3125 36.6514 27.4343 36.4346 27.6512C36.2178 27.868 36.0959 28.1621 36.0959 28.4688V53.9062H32.6272C31.0945 53.9081 29.6251 54.5178 28.5413 55.6016C27.4575 56.6854 26.8478 58.1548 26.8459 59.6875V90.9062C26.8478 92.439 27.4575 93.9084 28.5413 94.9922C29.6251 96.076 31.0945 96.6857 32.6272 96.6875H81.1897C82.6768 96.6823 84.1048 96.1042 85.1767 95.0734C86.2487 94.0426 86.8822 92.6383 86.9455 91.1525L96.1793 57.6826C96.207 57.5824 96.221 57.4789 96.2209 57.375ZM80.0334 34.25V59.6875H77.7209V34.25H80.0334ZM38.4084 29.625H75.4084V59.6875H52.7621L47.3197 54.245C47.1029 54.0282 46.8088 53.9063 46.5022 53.9062H38.4084V29.625ZM84.6584 90.9062C84.6584 91.8262 84.293 92.7085 83.6425 93.359C82.992 94.0095 82.1097 94.375 81.1897 94.375H32.6272C31.7072 94.375 30.8249 94.0095 30.1744 93.359C29.5239 92.7085 29.1584 91.8262 29.1584 90.9062V59.6875C29.1584 58.7675 29.5239 57.8852 30.1744 57.2347C30.8249 56.5842 31.7072 56.2188 32.6272 56.2188H46.0235L51.466 61.6612C51.6828 61.8781 51.9768 61.9999 52.2834 62H81.1897C82.1097 62 82.992 62.3655 83.6425 63.016C84.293 63.6665 84.6584 64.5488 84.6584 65.4688V90.9062ZM86.9709 82.3673V65.4688C86.9693 64.1365 86.5083 62.8456 85.6659 61.8136C84.8234 60.7815 83.6509 60.0715 82.3459 59.8031V52.75H89.2834C90.4849 52.7494 91.6394 53.2163 92.5026 54.0519C93.3658 54.8875 93.87 56.0262 93.9084 57.227L86.9709 82.3673Z" fill="#4851D5"/>
<path d="M68.4709 72.4062H62.6897V66.625C62.6897 66.3183 62.5679 66.0242 62.351 65.8074C62.1342 65.5906 61.8401 65.4688 61.5334 65.4688H52.2834C51.9768 65.4688 51.6827 65.5906 51.4659 65.8074C51.249 66.0242 51.1272 66.3183 51.1272 66.625V72.4062H45.3459C45.0393 72.4062 44.7452 72.5281 44.5284 72.7449C44.3115 72.9617 44.1897 73.2558 44.1897 73.5625V82.8125C44.1897 83.1192 44.3115 83.4133 44.5284 83.6301C44.7452 83.8469 45.0393 83.9688 45.3459 83.9688H51.1272V89.75C51.1272 90.0567 51.249 90.3508 51.4659 90.5676C51.6827 90.7844 51.9768 90.9062 52.2834 90.9062H61.5334C61.8401 90.9062 62.1342 90.7844 62.351 90.5676C62.5679 90.3508 62.6897 90.0567 62.6897 89.75V83.9688H68.4709C68.7776 83.9688 69.0717 83.8469 69.2885 83.6301C69.5054 83.4133 69.6272 83.1192 69.6272 82.8125V73.5625C69.6272 73.2558 69.5054 72.9617 69.2885 72.7449C69.0717 72.5281 68.7776 72.4062 68.4709 72.4062ZM67.3147 81.6562H61.5334C61.2268 81.6562 60.9327 81.7781 60.7159 81.9949C60.499 82.2117 60.3772 82.5058 60.3772 82.8125V88.5938H53.4397V82.8125C53.4397 82.5058 53.3179 82.2117 53.101 81.9949C52.8842 81.7781 52.5901 81.6562 52.2834 81.6562H46.5022V74.7188H52.2834C52.5901 74.7188 52.8842 74.5969 53.101 74.3801C53.3179 74.1633 53.4397 73.8692 53.4397 73.5625V67.7812H60.3772V73.5625C60.3772 73.8692 60.499 74.1633 60.7159 74.3801C60.9327 74.5969 61.2268 74.7188 61.5334 74.7188H67.3147V81.6562Z" fill="#4851D5"/>
</g>
<defs>
<clipPath id="clip0_78_3493">
<rect width="76.875" height="76.875" fill="white" transform="translate(23.5625 23.0625)"/>
</clipPath>
</defs>
</svg>
