<svg width="103" height="103" viewBox="0 0 103 103" fill="none" xmlns="http://www.w3.org/2000/svg">
<g clip-path="url(#clip0_79_3833)">
<path d="M13.4882 37.4961H3.01758C1.35107 37.4961 0 38.8472 0 40.5137V102.999H13.4882V37.4961Z" fill="white"/>
<path d="M99.9823 37.4961H89.5117V102.999H103V40.5137C103 38.8472 101.649 37.4961 99.9823 37.4961Z" fill="white"/>
<path d="M56.7476 82.8369V103H46.2528V82.8369H56.7476Z" fill="white"/>
<path d="M80.4592 12.3942H70.9591V3.01758C70.9591 1.35107 69.608 0 67.9415 0H35.486C33.8195 0 32.4684 1.35107 32.4684 3.01758V12.3942H22.541C20.8745 12.3942 19.5234 13.7453 19.5234 15.4118V103H40.2176V79.8194C40.2176 78.1529 41.5687 76.8018 43.2352 76.8018H59.7651C61.4316 76.8018 62.7826 78.1529 62.7826 79.8194V103H83.4768V15.4118C83.4768 13.7453 82.1257 12.3942 80.4592 12.3942ZM37.8359 66.3736H34.5862C32.9197 66.3736 31.5686 65.0226 31.5686 63.3561C31.5686 61.6896 32.9197 60.3385 34.5862 60.3385H37.8359C39.5024 60.3385 40.8535 61.6896 40.8535 63.3561C40.8535 65.0226 39.5024 66.3736 37.8359 66.3736ZM37.8359 54.3033H34.5862C32.9197 54.3033 31.5686 52.9523 31.5686 51.2858C31.5686 49.6192 32.9197 48.2682 34.5862 48.2682H37.8359C39.5024 48.2682 40.8535 49.6192 40.8535 51.2858C40.8535 52.9523 39.5024 54.3033 37.8359 54.3033ZM37.8359 42.233H34.5862C32.9197 42.233 31.5686 40.8819 31.5686 39.2154C31.5686 37.5489 32.9197 36.1979 34.5862 36.1979H37.8359C39.5024 36.1979 40.8535 37.5489 40.8535 39.2154C40.8535 40.8819 39.5024 42.233 37.8359 42.233ZM53.125 66.3736H49.8752C48.2087 66.3736 46.8577 65.0226 46.8577 63.3561C46.8577 61.6896 48.2087 60.3385 49.8752 60.3385H53.125C54.7915 60.3385 56.1426 61.6896 56.1426 63.3561C56.1426 65.0226 54.7915 66.3736 53.125 66.3736ZM53.125 54.3033H49.8752C48.2087 54.3033 46.8577 52.9523 46.8577 51.2858C46.8577 49.6192 48.2087 48.2682 49.8752 48.2682H53.125C54.7915 48.2682 56.1426 49.6192 56.1426 51.2858C56.1426 52.9523 54.7915 54.3033 53.125 54.3033ZM53.125 42.233H49.8752C48.2087 42.233 46.8577 40.8819 46.8577 39.2154C46.8577 37.5489 48.2087 36.1979 49.8752 36.1979H53.125C54.7915 36.1979 56.1426 37.5489 56.1426 39.2154C56.1426 40.8819 54.7915 42.233 53.125 42.233ZM57.5817 24.1871H54.5177V27.2511C54.5177 28.9177 53.1666 30.2687 51.5001 30.2687C49.8336 30.2687 48.4825 28.9177 48.4825 27.2511V24.1871H45.4185C43.752 24.1871 42.4009 22.836 42.4009 21.1695C42.4009 19.503 43.752 18.1519 45.4185 18.1519H48.4825V15.0879C48.4825 13.4214 49.8336 12.0703 51.5001 12.0703C53.1666 12.0703 54.5177 13.4214 54.5177 15.0879V18.1519H57.5817C59.2482 18.1519 60.5993 19.503 60.5993 21.1695C60.5993 22.836 59.2482 24.1871 57.5817 24.1871ZM68.414 66.3736H65.1643C63.4978 66.3736 62.1467 65.0226 62.1467 63.3561C62.1467 61.6896 63.4978 60.3385 65.1643 60.3385H68.414C70.0805 60.3385 71.4316 61.6896 71.4316 63.3561C71.4316 65.0226 70.0805 66.3736 68.414 66.3736ZM68.414 54.3033H65.1643C63.4978 54.3033 62.1467 52.9523 62.1467 51.2858C62.1467 49.6192 63.4978 48.2682 65.1643 48.2682H68.414C70.0805 48.2682 71.4316 49.6192 71.4316 51.2858C71.4316 52.9523 70.0805 54.3033 68.414 54.3033ZM68.414 42.233H65.1643C63.4978 42.233 62.1467 40.8819 62.1467 39.2154C62.1467 37.5489 63.4978 36.1979 65.1643 36.1979H68.414C70.0805 36.1979 71.4316 37.5489 71.4316 39.2154C71.4316 40.8819 70.0805 42.233 68.414 42.233Z" fill="white"/>
</g>
<defs>
<clipPath id="clip0_79_3833">
<rect width="103" height="103" fill="white"/>
</clipPath>
</defs>
</svg>
