<svg width="26" height="25" viewBox="0 0 26 25" fill="none" xmlns="http://www.w3.org/2000/svg">
<g clip-path="url(#clip0_78_3639)">
<mask id="mask0_78_3639" style="mask-type:luminance" maskUnits="userSpaceOnUse" x="0" y="0" width="26" height="25">
<path d="M0.5 0H25.5V25H0.5V0Z" fill="white"/>
</mask>
<g mask="url(#mask0_78_3639)">
<path d="M12.9999 2.08398C8.96867 2.08398 5.70825 5.3444 5.70825 9.37565C5.70825 13.7194 10.3124 19.709 12.2083 21.9902C12.6249 22.4902 13.3853 22.4902 13.802 21.9902C15.6874 19.709 20.2916 13.7194 20.2916 9.37565C20.2916 5.3444 17.0312 2.08398 12.9999 2.08398ZM12.9999 11.9798C11.5624 11.9798 10.3958 10.8132 10.3958 9.37565C10.3958 7.93815 11.5624 6.77148 12.9999 6.77148C14.4374 6.77148 15.6041 7.93815 15.6041 9.37565C15.6041 10.8132 14.4374 11.9798 12.9999 11.9798Z" fill="#818181"/>
</g>
</g>
<defs>
<clipPath id="clip0_78_3639">
<rect width="25" height="25" fill="white" transform="translate(0.5)"/>
</clipPath>
</defs>
</svg>
