<svg width="123" height="123" viewBox="0 0 123 123" fill="none" xmlns="http://www.w3.org/2000/svg">
<rect width="123" height="123" rx="61.5" fill="white"/>
<g clip-path="url(#clip0_69_2009)">
<path d="M87.175 32.3115H80.959V29.0684C80.959 27.8743 79.991 26.9062 78.7969 26.9062C77.6027 26.9062 76.6348 27.8743 76.6348 29.0684V32.3115H46.3652V29.0684C46.3652 27.8743 45.3973 26.9062 44.2031 26.9062C43.009 26.9062 42.041 27.8743 42.041 29.0684V32.3115H35.825C30.9071 32.3115 26.9062 36.3124 26.9062 41.2302V87.175C26.9062 92.0929 30.9071 96.0938 35.825 96.0938H87.175C92.0929 96.0938 96.0938 92.0929 96.0938 87.175V41.2302C96.0938 36.3124 92.0929 32.3115 87.175 32.3115ZM35.825 36.6357H42.041V38.7979C42.041 39.9919 43.009 40.96 44.2031 40.96C45.3973 40.96 46.3652 39.9919 46.3652 38.7979V36.6357H76.6348V38.7979C76.6348 39.9919 77.6027 40.96 78.7969 40.96C79.991 40.96 80.959 39.9919 80.959 38.7979V36.6357H87.175C89.7085 36.6357 91.7695 38.6968 91.7695 41.2302V46.3652H31.2305V41.2302C31.2305 38.6968 33.2915 36.6357 35.825 36.6357ZM87.175 91.7695H35.825C33.2915 91.7695 31.2305 89.7085 31.2305 87.175V50.6895H91.7695V87.175C91.7695 89.7085 89.7085 91.7695 87.175 91.7695Z" fill="#4851D5"/>
</g>
<defs>
<clipPath id="clip0_69_2009">
<rect width="69.1875" height="69.1875" fill="white" transform="translate(26.9062 26.9062)"/>
</clipPath>
</defs>
</svg>
