<svg width="91" height="16" viewBox="0 0 91 16" fill="none" xmlns="http://www.w3.org/2000/svg">
<path d="M8.36982 0.954102L10.8718 5.60378L16.4654 6.34053L12.4087 9.95877L13.3737 15.0669L8.36982 12.6602L3.34805 15.0669L4.31309 9.95877L0.256348 6.34053L5.86787 5.60378L8.36982 0.954102Z" fill="#F9AE0E"/>
<path d="M26.9735 0.954102L29.4755 5.60378L35.087 6.34053L31.0303 9.95877L31.9774 15.0669L26.9735 12.6602L21.9696 15.0669L22.9168 9.95877L18.8779 6.34053L24.4716 5.60378L26.9735 0.954102Z" fill="#F9AE0E"/>
<path d="M45.5953 0.954102L48.0972 5.60378L53.6909 6.34053L49.6342 9.95877L50.5992 15.0669L45.5953 12.6602L40.5735 15.0669L41.5385 9.95877L37.4818 6.34053L43.0755 5.60378L45.5953 0.954102Z" fill="#F9AE0E"/>
<path d="M64.199 0.954102L66.701 5.60378L72.3125 6.34053L68.2557 9.95877L69.2029 15.0669L64.199 12.6602L59.1951 15.0669L60.1423 9.95877L56.1034 6.34053L61.697 5.60378L64.199 0.954102Z" fill="#F9AE0E"/>
<path d="M82.8208 0.954102L85.3227 5.60378L90.9164 6.34053L86.8596 9.95877L87.8247 15.0669L82.8208 12.6602L77.799 15.0669L78.764 9.95877L74.7073 6.34053L80.3009 5.60378L82.8208 0.954102Z" fill="#F9AE0E"/>
</svg>
