<svg width="92" height="32" viewBox="0 0 92 32" fill="none" xmlns="http://www.w3.org/2000/svg">
<path d="M9.36982 8.9541L11.8718 13.6038L17.4654 14.3405L13.4087 17.9588L14.3737 23.0669L9.36982 20.6602L4.34805 23.0669L5.31309 17.9588L1.25635 14.3405L6.86787 13.6038L9.36982 8.9541Z" fill="#F9AE0E"/>
<path d="M27.9735 8.9541L30.4755 13.6038L36.087 14.3405L32.0303 17.9588L32.9774 23.0669L27.9735 20.6602L22.9696 23.0669L23.9168 17.9588L19.8779 14.3405L25.4716 13.6038L27.9735 8.9541Z" fill="#F9AE0E"/>
<path d="M46.5952 8.9541L49.0971 13.6038L54.6908 14.3405L50.634 17.9588L51.5991 23.0669L46.5952 20.6602L41.5734 23.0669L42.5384 17.9588L38.4817 14.3405L44.0753 13.6038L46.5952 8.9541Z" fill="#F9AE0E"/>
<path d="M65.1991 8.9541L67.7011 13.6038L73.3126 14.3405L69.2559 17.9588L70.203 23.0669L65.1991 20.6602L60.1952 23.0669L61.1424 17.9588L57.1035 14.3405L62.6972 13.6038L65.1991 8.9541Z" fill="#F9AE0E"/>
<path d="M83.8208 8.9541L86.3227 13.6038L91.9164 14.3405L87.8596 17.9588L88.8247 23.0669L83.8208 20.6602L78.799 23.0669L79.764 17.9588L75.7073 14.3405L81.3009 13.6038L83.8208 8.9541Z" fill="#F9AE0E"/>
</svg>
