<svg width="82" height="82" viewBox="0 0 82 82" fill="none" xmlns="http://www.w3.org/2000/svg">
<rect width="82" height="82" rx="41" fill="white"/>
<g clip-path="url(#clip0_69_1920)">
<path d="M31.1198 50.4799C30.5577 50.4799 30.0299 50.2608 29.6344 49.8639L21.9351 42.1646C21.5389 41.7698 21.3198 41.242 21.3198 40.6799C21.3198 40.1178 21.5389 39.59 21.9358 39.1945L29.6351 31.4952C30.0299 31.099 30.5577 30.8799 31.1198 30.8799C32.2776 30.8799 33.2198 31.8221 33.2198 32.9799C33.2198 33.542 33.0007 34.0698 32.6038 34.4653L26.3892 40.6799L32.6045 46.8952C33.0014 47.29 33.2198 47.8178 33.2198 48.3799C33.2198 49.5377 32.2776 50.4799 31.1198 50.4799Z" fill="#4851D5"/>
<path d="M53.5199 51.1801C52.3621 51.1801 51.4199 50.2379 51.4199 49.0801C51.4199 48.518 51.639 47.9902 52.0359 47.5947L58.2505 41.3801L52.0352 35.1648C51.639 34.7686 51.4199 34.2408 51.4199 33.6801C51.4199 32.5223 52.3621 31.5801 53.5199 31.5801C54.082 31.5801 54.6098 31.7992 55.0053 32.1961L62.7046 39.8954C63.1015 40.2916 63.3199 40.8194 63.3199 41.3801C63.3199 41.9422 63.1008 42.47 62.7039 42.8655L55.0046 50.5648C54.6098 50.9617 54.082 51.1801 53.5199 51.1801Z" fill="#4851D5"/>
<path d="M36.0199 56.7791C34.8621 56.7791 33.9199 55.8369 33.9199 54.6791C33.9199 54.4005 33.9745 54.1282 34.0809 53.8706L46.6816 25.8692C47.0106 25.0852 47.7715 24.5791 48.6199 24.5791C49.7777 24.5791 50.7199 25.5213 50.7199 26.6791C50.7199 26.9577 50.6653 27.23 50.5589 27.4876L37.9582 55.489C37.6292 56.273 36.8683 56.7791 36.0199 56.7791Z" fill="#4851D5"/>
</g>
<defs>
<clipPath id="clip0_69_1920">
<rect width="42" height="42" fill="white" transform="translate(21.3198 19.6797)"/>
</clipPath>
</defs>
</svg>
