<svg width="44" height="44" viewBox="0 0 44 44" fill="none" xmlns="http://www.w3.org/2000/svg">
<rect width="43.2971" height="43.2971" rx="21.6486" fill="white"/>
<path d="M31.5711 19.3528C31.5711 27.389 21.6488 34.2772 21.6488 34.2772C21.6488 34.2772 11.7266 27.389 11.7266 19.3528C11.7266 16.6125 12.7719 13.9844 14.6327 12.0468C16.4935 10.1091 19.0173 9.02051 21.6488 9.02051C24.2804 9.02051 26.8041 10.1091 28.6649 12.0468C30.5257 13.9844 31.5711 16.6125 31.5711 19.3528Z" stroke="#515AD7" stroke-width="2" stroke-linecap="round" stroke-linejoin="round"/>
<path d="M21.648 21.6485C23.1425 21.6485 24.354 20.4369 24.354 18.9424C24.354 17.4479 23.1425 16.2363 21.648 16.2363C20.1534 16.2363 18.9419 17.4479 18.9419 18.9424C18.9419 20.4369 20.1534 21.6485 21.648 21.6485Z" stroke="#5059D6" stroke-width="2" stroke-linecap="round" stroke-linejoin="round"/>
</svg>
