<svg width="73" height="73" viewBox="0 0 73 73" fill="none" xmlns="http://www.w3.org/2000/svg">
<rect width="73" height="73" rx="36.5" fill="#4851D5"/>
<path d="M32.066 41.1363C33.6613 39.7571 34.916 38.627 35.83 37.7463C36.7606 36.8489 37.5333 35.9183 38.1481 34.9545C38.763 33.9906 39.0704 33.0268 39.0704 32.063C39.0704 31.0659 38.8295 30.2849 38.3476 29.7199C37.8823 29.1548 37.1428 28.8723 36.1291 28.8723C35.1486 28.8723 34.3842 29.1881 33.8358 29.8196C33.304 30.4344 33.0215 31.2653 32.9883 32.3122H30.2463C30.2962 30.4178 30.8612 28.972 31.9414 27.975C33.0381 26.9613 34.4257 26.4544 36.1041 26.4544C37.9155 26.4544 39.328 26.953 40.3417 27.95C41.372 28.9471 41.8872 30.2766 41.8872 31.9383C41.8872 33.1348 41.5797 34.2898 40.9649 35.4032C40.3666 36.5 39.6438 37.4887 38.7962 38.3695C37.9654 39.2336 36.9018 40.239 35.6056 41.3856L34.4839 42.3827H42.3857V44.7507H30.2713V42.6818L32.066 41.1363Z" fill="white"/>
</svg>
