<svg width="74" height="73" viewBox="0 0 74 73" fill="none" xmlns="http://www.w3.org/2000/svg">
<rect x="0.625" width="73" height="73" rx="36.5" fill="#4851D5"/>
<path d="M31.0708 31.3152C31.1705 29.7697 31.7604 28.5649 32.8406 27.7008C33.9373 26.8366 35.3332 26.4046 37.0283 26.4046C38.1915 26.4046 39.1969 26.6123 40.0444 27.0278C40.8919 27.4432 41.5317 28.0082 41.9638 28.7228C42.3958 29.4373 42.6119 30.2433 42.6119 31.1407C42.6119 32.171 42.3377 33.0517 41.7893 33.7829C41.2409 34.5141 40.5845 35.0043 39.8201 35.2536V35.3533C40.8005 35.6524 41.565 36.2008 42.1133 36.9985C42.6617 37.7795 42.9359 38.7849 42.9359 40.0146C42.9359 40.9951 42.7116 41.8675 42.2629 42.632C41.8142 43.3964 41.1495 44.0029 40.2688 44.4516C39.388 44.8837 38.3328 45.0997 37.103 45.0997C35.3083 45.0997 33.8293 44.6427 32.6661 43.7287C31.5194 42.7981 30.9046 41.4687 30.8215 39.7404H33.5634C33.6299 40.6212 33.9706 41.3441 34.5854 41.9091C35.2003 42.4575 36.0312 42.7317 37.0781 42.7317C38.0918 42.7317 38.8729 42.4575 39.4212 41.9091C39.9696 41.3441 40.2438 40.6212 40.2438 39.7404C40.2438 38.5772 39.8699 37.7546 39.1221 37.2727C38.3909 36.7741 37.2609 36.5249 35.7321 36.5249H35.084V34.1818H35.757C37.103 34.1651 38.125 33.9408 38.823 33.5087C39.5376 33.0767 39.8949 32.3953 39.8949 31.4647C39.8949 30.6671 39.6373 30.0356 39.1221 29.5703C38.607 29.0884 37.8758 28.8474 36.9286 28.8474C35.998 28.8474 35.2751 29.0884 34.7599 29.5703C34.2448 30.0356 33.9373 30.6172 33.8376 31.3152H31.0708Z" fill="white"/>
</svg>
