<svg width="44" height="44" viewBox="0 0 44 44" fill="none" xmlns="http://www.w3.org/2000/svg">
<rect width="43.2971" height="43.2971" rx="21.6486" fill="white"/>
<path d="M9.02051 15.4629C9.02051 14.711 9.31617 13.9899 9.84245 13.4583C10.3687 12.9266 11.0825 12.6279 11.8268 12.6279H31.4709C32.2151 12.6279 32.9289 12.9266 33.4552 13.4583C33.9815 13.9899 34.2772 14.711 34.2772 15.4629M9.02051 15.4629V29.6375C9.02051 30.3894 9.31617 31.1105 9.84245 31.6421C10.3687 32.1738 11.0825 32.4724 11.8268 32.4724H31.4709C32.2151 32.4724 32.9289 32.1738 33.4552 31.6421C33.9815 31.1105 34.2772 30.3894 34.2772 29.6375V15.4629M9.02051 15.4629L21.6488 23.9677L34.2772 15.4629" stroke="#5059D6" stroke-width="2" stroke-linecap="round" stroke-linejoin="round"/>
</svg>
